<?xml version="1.0" standalone="no"?>
<!DOCTYPE svg PUBLIC "-//W3C//DTD SVG 20010904//EN"
 "http://www.w3.org/TR/2001/REC-SVG-20010904/DTD/svg10.dtd">
<svg version="1.0" xmlns="http://www.w3.org/2000/svg"
 width="310.000000pt" height="310.000000pt" viewBox="0 0 310.000000 310.000000"
 preserveAspectRatio="xMidYMid meet">
<metadata>
Created by potrace 1.14, written by Peter Selinger 2001-2017
</metadata>
<g transform="translate(0.000000,310.000000) scale(0.100000,-0.100000)"
fill="#000000" stroke="none">
<path d="M2685 3088 c-11 -6 -52 -42 -91 -80 l-70 -69 -50 23 c-41 19 -66 23
-154 23 -190 0 -115 63 -1075 -896 l-830 -829 423 -422 422 -423 829 830 c959
960 896 885 896 1075 0 88 -4 113 -23 154 l-23 50 70 70 c38 39 74 81 80 93
15 30 14 89 -3 121 -17 32 -252 265 -283 281 -28 14 -92 14 -118 -1z m-320
-409 c60 -17 299 -257 314 -316 24 -89 52 -57 -714 -828 l-705 -710 -217 217
-217 218 708 702 c655 651 734 725 781 727 6 1 28 -4 50 -10z"/>
<path d="M2005 2420 l-100 -100 208 -208 207 -207 102 103 103 102 -205 205
c-113 113 -207 205 -210 205 -3 0 -50 -45 -105 -100z"/>
<path d="M151 574 c-84 -310 -151 -568 -148 -571 5 -5 1124 295 1137 304 4 4
-821 833 -830 833 -3 0 -74 -255 -159 -566z"/>
</g>
</svg>
